<?xml version="1.0" encoding="UTF-8" standalone="no"?>
<!-- Created with Inkscape (http://www.inkscape.org/) -->

<svg
   xmlns:dc="http://purl.org/dc/elements/1.1/"
   xmlns:cc="http://creativecommons.org/ns#"
   xmlns:rdf="http://www.w3.org/1999/02/22-rdf-syntax-ns#"
   xmlns:svg="http://www.w3.org/2000/svg"
   xmlns="http://www.w3.org/2000/svg"
   xmlns:sodipodi="http://sodipodi.sourceforge.net/DTD/sodipodi-0.dtd"
   xmlns:inkscape="http://www.inkscape.org/namespaces/inkscape"
   width="210mm"
   height="297mm"
   viewBox="0 0 210 297"
   version="1.1"
   id="svg8"
   inkscape:version="0.92.4 (5da689c313, 2019-01-14)"
   sodipodi:docname="submarine.svg"
   inkscape:export-filename="C:\Users\Fredd\projects\spelsylt3\assets\enamy_sub.png"
   inkscape:export-xdpi="96"
   inkscape:export-ydpi="96">
  <defs
     id="defs2" />
  <sodipodi:namedview
     id="base"
     pagecolor="#ffffff"
     bordercolor="#666666"
     borderopacity="1.0"
     inkscape:pageopacity="0.0"
     inkscape:pageshadow="2"
     inkscape:zoom="0.7"
     inkscape:cx="719.50467"
     inkscape:cy="554.88162"
     inkscape:document-units="mm"
     inkscape:current-layer="layer1"
     showgrid="false"
     inkscape:window-width="1920"
     inkscape:window-height="1017"
     inkscape:window-x="-8"
     inkscape:window-y="-8"
     inkscape:window-maximized="1" />
  <metadata
     id="metadata5">
    <rdf:RDF>
      <cc:Work
         rdf:about="">
        <dc:format>image/svg+xml</dc:format>
        <dc:type
           rdf:resource="http://purl.org/dc/dcmitype/StillImage" />
        <dc:title></dc:title>
      </cc:Work>
    </rdf:RDF>
  </metadata>
  <g
     inkscape:label="Layer 1"
     inkscape:groupmode="layer"
     id="layer1">
    <path
       style="fill:#2a003c;stroke-width:0.26458332;fill-opacity:1"
       d="m 109.04597,40.955789 c 12.43765,0 22.45064,34.601782 22.45064,47.039437 V 202.38658 c 0,12.43765 -10.01299,79.90302 -22.45064,79.90302 -12.437655,0 -22.450641,-67.46537 -22.450641,-79.90302 V 87.995226 c 0,-12.437655 10.012986,-47.039437 22.450641,-47.039437 z"
       id="rect3717"
       inkscape:connector-curvature="0"
       sodipodi:nodetypes="sssssss" />
    <rect
       style="fill:#2a003c;fill-opacity:1;stroke-width:0.23735379"
       id="rect3720"
       width="63.877975"
       height="15.497024"
       x="77.296127"
       y="249.94197"
       ry="0" />
    <path
       style="fill:#2a0035;fill-opacity:1;stroke-width:0.28493369"
       id="path4542"
       sodipodi:type="arc"
       sodipodi:cx="109.14062"
       sodipodi:cy="162.34598"
       sodipodi:rx="15.024553"
       sodipodi:ry="29.576635"
       sodipodi:start="0"
       sodipodi:end="6.2828711"
       d="m 124.16517,162.34598 a 15.024553,29.576635 0 0 1 -15.02337,29.57663 15.024553,29.576635 0 0 1 -15.025736,-29.57199 15.024553,29.576635 0 0 1 15.021016,-29.58128 15.024553,29.576635 0 0 1 15.02809,29.56734 l -15.02455,0.009 z" />
    <path
       style="fill:#2a004f;fill-opacity:1;stroke-width:0.26458332"
       id="path4542-1"
       sodipodi:type="arc"
       sodipodi:cx="109.14062"
       sodipodi:cy="162.34598"
       sodipodi:rx="13.607142"
       sodipodi:ry="28.159227"
       sodipodi:start="0"
       sodipodi:end="6.2828711"
       d="m 122.74776,162.34598 a 13.607142,28.159227 0 0 1 -13.60607,28.15923 13.607142,28.159227 0 0 1 -13.608215,-28.15481 13.607142,28.159227 0 0 1 13.603935,-28.16365 13.607142,28.159227 0 0 1 13.61035,28.15038 l -13.60714,0.009 z" />
    <rect
       style="fill:#2a0035;fill-opacity:1;stroke-width:0.10386254"
       id="rect4568"
       width="8.9132261"
       height="12.473214"
       x="86.692711"
       y="155.00252" />
    <rect
       style="fill:#2a0035;fill-opacity:1;stroke-width:0.10140317"
       id="rect4568-3"
       width="8.496109"
       height="12.473214"
       x="122.78954"
       y="155.00252" />
    <rect
       style="fill:#2a004f;fill-opacity:1;stroke-width:0.23930646"
       id="rect4568-0"
       width="54.298882"
       height="10.869597"
       x="80.955276"
       y="155.84952" />
    <rect
       style="fill:#2a003c;fill-opacity:1;stroke-width:0.20559584"
       id="rect4601"
       width="2.2312608"
       height="6.8044753"
       x="107.91482"
       y="280.23889" />
    <rect
       style="fill:#2a003c;fill-opacity:1;stroke-width:0.26458332"
       id="rect4603"
       width="6.9925594"
       height="0.80319941"
       x="105.45536"
       y="286.60568" />
  </g>
</svg>
